# xmcd
#
# Track frame offsets: 
#        170
#        13685
#        27132
#        38737
#        55062
#        64675
#        77907
#        89350
#        101875
#        115440
#        124260
#        143050
#        153810
#        166845
#        177745
#        191337
#        200007
#        211295
#        222177
#        232162
#        247102
#        258525
#        270675
#        283755
#        291887
#        309610
#
# Disc length: 4280 seconds
#
# Revision: 0
# Processed by: cddbd v1.5.2PL0 Copyright (c) Steve Scherf et al.
# Submitted via: ExactAudioCopy v0.99pb4
#
DISCID=8b10b61a
DTITLE=Various Artist - Your Cheatin' Heart
DYEAR=1990
DGENRE=Soundtrack
TTITLE0=Tilda Swinton, Katy Murphy and Eddie Reader - Your Cheatin' Hear
TTITLE0=t
TTITLE1=Guy Mitchell - Jambalaya
TTITLE2=Katy Murphy and Eddie Reader - Don't Be Cruel
TTITLE3=Kevin McMonagle - Always On My Mind
TTITLE4=Maggie Bell and Tom Watson - Hey Good Lookin'
TTITLE5=Katy Murphy and Eddie Reader - Quicksilver
TTITLE6=Kevin McMonagle - Running Wild
TTITLE7=Eddie Reader - Deep Water
TTITLE8=Guy Mitchell - Tennessee Waltz
TTITLE9=The Deadwood Playboys - You Are My Sunshine
TTITLE10=Eddie Reader - From A Distance
TTITLE11=Guy Mitchell - Settin' The Woods On Fire
TTITLE12=Kevin McMonagle - Your Cheatin' Heart
TTITLE13=Eddie Reader - Half As Much
TTITLE14=Guy Mitchell - It Keeps Right On Hurtin'
TTITLE15=The Wild Bunch - Great Balls Of Fire
TTITLE16=Katy Murphy and Eddie Reader - The End Of The World
TTITLE17=Kevin McMonagle - Hello Mary Lou
TTITLE18=Kevin McMonagle - Singing The Blues
TTITLE19=Katy Murphy and Eddie Reader - Just Out Of Reach
TTITLE20=Kevin McMonagle - Lovesick Blues
TTITLE21=Tilda Swinton - Sleepless Nights
TTITLE22=Ken Stott - I Can't Stop Loving You
TTITLE23=Eddie Reader - Runnin' Wild
TTITLE24=Guy Mitchell - Your Cheatin' Heart
TTITLE25=John Carmichael and His Scottish Dance Band - Your Cheatin' Hea
TTITLE25=rt
EXTD=
EXTT0=
EXTT1=
EXTT2=
EXTT3=
EXTT4=
EXTT5=
EXTT6=
EXTT7=
EXTT8=
EXTT9=
EXTT10=
EXTT11=
EXTT12=
EXTT13=
EXTT14=
EXTT15=
EXTT16=
EXTT17=
EXTT18=
EXTT19=
EXTT20=
EXTT21=
EXTT22=
EXTT23=
EXTT24=
EXTT25=
PLAYORDER=
